<mxfile host="app.diagrams.net" agent="Mozilla/5.0 (Windows NT 10.0; Win64; x64) AppleWebKit/537.36 (KHTML, like Gecko) Chrome/140.0.0.0 Safari/537.36 Edg/140.0.0.0" version="28.2.5">
  <diagram name="整体流程" id="4f1ziyiZTk7HweYRQYEw">
    <mxGraphModel dx="1896" dy="886" grid="1" gridSize="10" guides="1" tooltips="1" connect="1" arrows="1" fold="1" page="1" pageScale="1" pageWidth="3300" pageHeight="4681" math="0" shadow="0">
      <root>
        <mxCell id="0" />
        <mxCell id="1" parent="0" />
        <mxCell id="O8xBnM_bGSTCPccXfUTa-1" style="edgeStyle=orthogonalEdgeStyle;rounded=0;orthogonalLoop=1;jettySize=auto;html=1;exitX=0.5;exitY=1;exitDx=0;exitDy=0;entryX=0.5;entryY=0;entryDx=0;entryDy=0;" parent="1" source="O8xBnM_bGSTCPccXfUTa-2" target="O8xBnM_bGSTCPccXfUTa-8" edge="1">
          <mxGeometry relative="1" as="geometry" />
        </mxCell>
        <mxCell id="O8xBnM_bGSTCPccXfUTa-2" value="普耗&lt;div&gt;请领&lt;/div&gt;&lt;div&gt;物资请领&lt;/div&gt;" style="shape=process;whiteSpace=wrap;html=1;backgroundOutline=1;" parent="1" vertex="1">
          <mxGeometry x="610" y="450" width="120" height="60" as="geometry" />
        </mxCell>
        <mxCell id="O8xBnM_bGSTCPccXfUTa-3" value="二级库用户" style="shape=umlActor;verticalLabelPosition=bottom;verticalAlign=top;html=1;outlineConnect=0;" parent="1" vertex="1">
          <mxGeometry x="655" y="330" width="30" height="60" as="geometry" />
        </mxCell>
        <mxCell id="O8xBnM_bGSTCPccXfUTa-4" value="一级库用户" style="shape=umlActor;verticalLabelPosition=bottom;verticalAlign=top;html=1;outlineConnect=0;" parent="1" vertex="1">
          <mxGeometry x="1090" y="330" width="30" height="60" as="geometry" />
        </mxCell>
        <mxCell id="O8xBnM_bGSTCPccXfUTa-5" style="edgeStyle=orthogonalEdgeStyle;rounded=0;orthogonalLoop=1;jettySize=auto;html=1;exitX=1;exitY=0.5;exitDx=0;exitDy=0;entryX=0;entryY=0.5;entryDx=0;entryDy=0;" parent="1" source="O8xBnM_bGSTCPccXfUTa-8" target="O8xBnM_bGSTCPccXfUTa-10" edge="1">
          <mxGeometry relative="1" as="geometry" />
        </mxCell>
        <mxCell id="O8xBnM_bGSTCPccXfUTa-6" value="否" style="edgeLabel;html=1;align=center;verticalAlign=middle;resizable=0;points=[];" parent="O8xBnM_bGSTCPccXfUTa-5" connectable="0" vertex="1">
          <mxGeometry x="-0.5918" relative="1" as="geometry">
            <mxPoint as="offset" />
          </mxGeometry>
        </mxCell>
        <mxCell id="O8xBnM_bGSTCPccXfUTa-7" style="edgeStyle=orthogonalEdgeStyle;rounded=0;orthogonalLoop=1;jettySize=auto;html=1;exitX=0.5;exitY=1;exitDx=0;exitDy=0;entryX=0.5;entryY=0;entryDx=0;entryDy=0;" parent="1" source="O8xBnM_bGSTCPccXfUTa-8" edge="1">
          <mxGeometry relative="1" as="geometry">
            <mxPoint x="670" y="820" as="targetPoint" />
          </mxGeometry>
        </mxCell>
        <mxCell id="1XlLmX_h5XbBWdMoq5pK-1" value="是" style="edgeLabel;html=1;align=center;verticalAlign=middle;resizable=0;points=[];" vertex="1" connectable="0" parent="O8xBnM_bGSTCPccXfUTa-7">
          <mxGeometry x="-0.1636" y="4" relative="1" as="geometry">
            <mxPoint as="offset" />
          </mxGeometry>
        </mxCell>
        <mxCell id="O8xBnM_bGSTCPccXfUTa-8" value="科室设置&lt;div&gt;&lt;span style=&quot;color: rgb(102, 102, 102); font-family: &amp;quot;Helvetica Neue&amp;quot;, Helvetica, Arial, sans-serif; font-weight: 700; text-align: start; background-color: rgb(255, 255, 255);&quot;&gt;是否启用请领单/补货单科室审核&lt;/span&gt;&lt;/div&gt;" style="rhombus;whiteSpace=wrap;html=1;" parent="1" vertex="1">
          <mxGeometry x="605" y="600" width="130" height="110" as="geometry" />
        </mxCell>
        <mxCell id="O8xBnM_bGSTCPccXfUTa-9" style="edgeStyle=orthogonalEdgeStyle;rounded=0;orthogonalLoop=1;jettySize=auto;html=1;exitX=0.5;exitY=1;exitDx=0;exitDy=0;entryX=0.5;entryY=0;entryDx=0;entryDy=0;" parent="1" source="O8xBnM_bGSTCPccXfUTa-10" target="O8xBnM_bGSTCPccXfUTa-21" edge="1">
          <mxGeometry relative="1" as="geometry" />
        </mxCell>
        <mxCell id="O8xBnM_bGSTCPccXfUTa-10" value="采购管理&lt;div&gt;科室订单&lt;/div&gt;" style="shape=process;whiteSpace=wrap;html=1;backgroundOutline=1;" parent="1" vertex="1">
          <mxGeometry x="1045" y="450" width="120" height="60" as="geometry" />
        </mxCell>
        <mxCell id="O8xBnM_bGSTCPccXfUTa-11" style="edgeStyle=orthogonalEdgeStyle;rounded=0;orthogonalLoop=1;jettySize=auto;html=1;exitX=1;exitY=0.5;exitDx=0;exitDy=0;" parent="1" edge="1">
          <mxGeometry relative="1" as="geometry">
            <mxPoint x="965" y="480" as="targetPoint" />
            <mxPoint x="660" y="1015" as="sourcePoint" />
            <Array as="points">
              <mxPoint x="966" y="1015" />
            </Array>
          </mxGeometry>
        </mxCell>
        <mxCell id="O8xBnM_bGSTCPccXfUTa-12" value="通过" style="edgeLabel;html=1;align=center;verticalAlign=middle;resizable=0;points=[];" parent="O8xBnM_bGSTCPccXfUTa-11" connectable="0" vertex="1">
          <mxGeometry x="-0.56" y="1" relative="1" as="geometry">
            <mxPoint as="offset" />
          </mxGeometry>
        </mxCell>
        <mxCell id="O8xBnM_bGSTCPccXfUTa-13" style="edgeStyle=orthogonalEdgeStyle;rounded=0;orthogonalLoop=1;jettySize=auto;html=1;exitX=0;exitY=0.5;exitDx=0;exitDy=0;entryX=0;entryY=0.5;entryDx=0;entryDy=0;" parent="1" source="O8xBnM_bGSTCPccXfUTa-15" target="O8xBnM_bGSTCPccXfUTa-2" edge="1">
          <mxGeometry relative="1" as="geometry">
            <Array as="points">
              <mxPoint x="530" y="1015" />
              <mxPoint x="530" y="480" />
            </Array>
          </mxGeometry>
        </mxCell>
        <mxCell id="O8xBnM_bGSTCPccXfUTa-14" value="退回" style="edgeLabel;html=1;align=center;verticalAlign=middle;resizable=0;points=[];" parent="O8xBnM_bGSTCPccXfUTa-13" connectable="0" vertex="1">
          <mxGeometry x="-0.0172" y="1" relative="1" as="geometry">
            <mxPoint as="offset" />
          </mxGeometry>
        </mxCell>
        <mxCell id="O8xBnM_bGSTCPccXfUTa-15" value="审核" style="rhombus;whiteSpace=wrap;html=1;" parent="1" vertex="1">
          <mxGeometry x="605" y="960" width="130" height="110" as="geometry" />
        </mxCell>
        <mxCell id="O8xBnM_bGSTCPccXfUTa-16" style="edgeStyle=orthogonalEdgeStyle;rounded=0;orthogonalLoop=1;jettySize=auto;html=1;exitX=0.5;exitY=1;exitDx=0;exitDy=0;entryX=0.5;entryY=0;entryDx=0;entryDy=0;" parent="1" target="O8xBnM_bGSTCPccXfUTa-15" edge="1">
          <mxGeometry relative="1" as="geometry">
            <mxPoint x="670" y="880" as="sourcePoint" />
          </mxGeometry>
        </mxCell>
        <mxCell id="O8xBnM_bGSTCPccXfUTa-17" style="edgeStyle=orthogonalEdgeStyle;rounded=0;orthogonalLoop=1;jettySize=auto;html=1;exitX=1;exitY=0.5;exitDx=0;exitDy=0;" parent="1" source="O8xBnM_bGSTCPccXfUTa-21" target="O8xBnM_bGSTCPccXfUTa-23" edge="1">
          <mxGeometry relative="1" as="geometry" />
        </mxCell>
        <mxCell id="O8xBnM_bGSTCPccXfUTa-18" value="通过" style="edgeLabel;html=1;align=center;verticalAlign=middle;resizable=0;points=[];" parent="O8xBnM_bGSTCPccXfUTa-17" connectable="0" vertex="1">
          <mxGeometry x="-0.2258" y="-4" relative="1" as="geometry">
            <mxPoint as="offset" />
          </mxGeometry>
        </mxCell>
        <mxCell id="O8xBnM_bGSTCPccXfUTa-19" style="edgeStyle=orthogonalEdgeStyle;rounded=0;orthogonalLoop=1;jettySize=auto;html=1;exitX=0.5;exitY=1;exitDx=0;exitDy=0;" parent="1" source="O8xBnM_bGSTCPccXfUTa-21" edge="1">
          <mxGeometry relative="1" as="geometry">
            <mxPoint x="530" y="480" as="targetPoint" />
            <mxPoint x="955" y="722" as="sourcePoint" />
            <Array as="points">
              <mxPoint x="1105" y="1130" />
              <mxPoint x="460" y="1130" />
              <mxPoint x="460" y="480" />
            </Array>
          </mxGeometry>
        </mxCell>
        <mxCell id="O8xBnM_bGSTCPccXfUTa-20" value="退回" style="edgeLabel;html=1;align=center;verticalAlign=middle;resizable=0;points=[];" parent="O8xBnM_bGSTCPccXfUTa-19" connectable="0" vertex="1">
          <mxGeometry x="-0.1339" y="-2" relative="1" as="geometry">
            <mxPoint as="offset" />
          </mxGeometry>
        </mxCell>
        <mxCell id="O8xBnM_bGSTCPccXfUTa-21" value="审核" style="rhombus;whiteSpace=wrap;html=1;" parent="1" vertex="1">
          <mxGeometry x="1065" y="570" width="80" height="80" as="geometry" />
        </mxCell>
        <mxCell id="O8xBnM_bGSTCPccXfUTa-22" value="普耗&lt;div&gt;请领&lt;/div&gt;&lt;div&gt;请领审批&lt;/div&gt;" style="shape=process;whiteSpace=wrap;html=1;backgroundOutline=1;" parent="1" vertex="1">
          <mxGeometry x="610" y="820" width="120" height="60" as="geometry" />
        </mxCell>
        <mxCell id="O8xBnM_bGSTCPccXfUTa-23" value="采购单" style="rounded=1;whiteSpace=wrap;html=1;" parent="1" vertex="1">
          <mxGeometry x="1300" y="580" width="120" height="60" as="geometry" />
        </mxCell>
      </root>
    </mxGraphModel>
  </diagram>
</mxfile>
